- 
http://www.Speed.Cd 
       
http://www.Speed.Cd      fast  and The Hottest Private Tracker on the net

(((--Submit for invite!!--)))

Please Seed back to make the speed Faster!!!

------------------nfo--------------------------
-[img]http://img706.imageshack.us/img706/7462/3d3294c943f3c34ccbf1bfb.jpg[/img]
[pre]
     _______.     ___      .___  ___.  __    __  .______          ___       __  
    /       |    /   \     |   \/   | |  |  |  | |   _  \        /   \     |  | 
   |   (----`   /  ^  \    |  \  /  | |  |  |  | |  |_)  |      /  ^  \    |  | 
    \   \      /  /_\  \   |  |\/|  | |  |  |  | |      /      /  /_\  \   |  | 
.----)   |    /  _____  \  |  |  |  | |  `--'  | |  |\  \----./  _____  \  |  | 
|_______/    /__/     \__\ |__|  |__|  \______/  | _| `._____/__/     \__\ |__| 
                                                                                

Zookeeper.2011.480p.BRRiP.XViD-SAMURAi

ANOTHER QUALiTY SAMURAi RELEASE!!!

Encoder........: SAMURAi
Video Codec....: XViD
Audio Codec....: Mp3
Audio Bitrate..: 128 kb/s
Subtitles......: N/a
Resolution.....: 720 x 304
Runtime........: 1h 41mn
Language.......: English
IMDB Link......: http://www.imdb.com/title/tt1222817/
Genre..........: Comedy | Family | Romance 
Ratings........: 4.4/10 from 5,990 users
Stars..........: Kevin James, Rosario Dawson and Leslie Bibb
Plot...........: A group of zoo animals decide to break their code 
of silence in order to help their lovable zoo keeper find love -- 
without opting to leave his current job for something more illustrious. 


Video Source: Zookeeper.2011.BluRay.720p.DTS.x264-CHD
Audio Source: Zookeeper.2011.BluRay.720p.DTS.x264-CHD
 
Format                           : AVI
Format/Info                      : Audio Video Interleave
File size                        : 1.36 GiB
Duration                         : 1h 41mn
Overall bit rate                 : 1 912 Kbps
Writing library                  : VirtualDub build 32842/release

Video
ID                               : 0
Format                           : MPEG-4 Visual
Format profile                   : Advanced Simple@L5
Format settings, BVOP            : 2
Format settings, QPel            : No
Format settings, GMC             : No warppoints
Format settings, Matrix          : Default (H.263)
Muxing mode                      : Packed bitstream
Codec ID                         : XVID
Codec ID/Hint                    : XviD
Duration                         : 1h 41mn
Bit rate                         : 1 790 Kbps
Width                            : 720 pixels
Height                           : 304 pixels
Display aspect ratio             : 2.35:1
Frame rate                       : 23.976 fps
Color space                      : YUV
Chroma subsampling               : 4:2:0
Bit depth                        : 8 bits
Scan type                        : Progressive
Compression mode                 : Lossy
Bits/(Pixel*Frame)               : 0.341
Stream size                      : 1.27 GiB (94%)
Writing library                  : XviD 64

Audio
ID                               : 1
Format                           : MPEG Audio
Format version                   : Version 1
Format profile                   : Layer 3
Mode                             : Joint stereo
Mode extension                   : MS Stereo
Codec ID                         : 55
Codec ID/Hint                    : MP3
Duration                         : 1h 29mn
Bit rate mode                    : Constant
Bit rate                         : 128 Kbps
Channel(s)                       : 2 channels
Sampling rate                    : 48.0 KHz
Compression mode                 : Lossy
Stream size                      : 82.4 MiB (6%)
Alignment                        : Split accross interleaves
Interleave, duration             : 47 ms (1.13 video frame)
Interleave, preload duration     : 500 ms
Writing library                  : LAME3.98r
Encoding settings                : -m j -V 4 -q 2 -lowpass 17 -b 128


Release Notes:
Here we go with a nice BRRiP of "Zookeeper 2011" Very nice quality didn't 
do to much just a few filters.



Screenshots:
[img]http://img689.imageshack.us/img689/5669/vlcsnap2011091914h24m56.png[/img]
[img]http://img69.imageshack.us/img69/8459/vlcsnap2011091914h25m37.png[/img]
[img]http://img97.imageshack.us/img97/5952/vlcsnap2011091914h26m54.png[/img]
[img]http://img64.imageshack.us/img64/8293/vlcsnap2011091914h28m42.png[/img]
[img]http://img26.imageshack.us/img26/2050/vlcsnap2011091914h27m18.png[/img]
[img]http://img717.imageshack.us/img717/677/vlcsnap2011091914h27m28.png[/img]



Greetz:
ViSiON, SiC, SANTi, IMAGiNE, MEM, LKRG, DTRG, FLAWL3SS, WBZ, NPW,
CM8, UnKnown, ETRG, SaM, Blackjesus, NOiR, EP1C, EMBER...and other p2p
groups past and present good job!

[/pre]